<svg xmlns="http://www.w3.org/2000/svg" viewBox="0 0 512 512">
  <defs>
    <linearGradient id="bg" x1="0" y1="0" x2="1" y2="1">
      <stop offset="0%" stop-color="#111827" />
      <stop offset="100%" stop-color="#1f2937" />
    </linearGradient>
    <linearGradient id="gold" x1="0" y1="0" x2="1" y2="1">
      <stop offset="0%" stop-color="#fde68a" />
      <stop offset="100%" stop-color="#f59e0b" />
    </linearGradient>
  </defs>
  <rect width="512" height="512" fill="url(#bg)" />
  <rect x="60" y="60" width="392" height="392" rx="112" fill="#0b1220" stroke="#f8fafc" stroke-width="10" />
  <circle cx="256" cy="192" r="112" fill="#111827" stroke="url(#gold)" stroke-width="14" />
  <rect x="178" y="154" width="90" height="28" rx="14" transform="rotate(-28 178 154)" fill="url(#gold)" />
  <rect x="214" y="123" width="102" height="28" rx="14" transform="rotate(-28 214 123)" fill="#f8fafc" />
  <rect x="240" y="146" width="58" height="24" rx="12" transform="rotate(-28 240 146)" fill="#92400e" />
  <rect x="180" y="151" width="126" height="16" rx="8" transform="rotate(18 180 151)" fill="#fbbf24" opacity="0.9" />
  <rect x="132" y="324" width="248" height="28" rx="14" fill="#e5e7eb" />
  <rect x="154" y="290" width="204" height="26" rx="13" fill="url(#gold)" />
  <rect x="186" y="246" width="140" height="18" rx="9" fill="#cbd5e1" />
  <circle cx="202" cy="408" r="22" fill="#fde68a" />
  <circle cx="310" cy="408" r="22" fill="#fde68a" />
  <rect x="194" y="392" width="124" height="16" rx="8" fill="#f8fafc" />
</svg>
