<svg xmlns="http://www.w3.org/2000/svg" viewBox="0 0 512 512">
  <defs>
    <linearGradient id="bg" x1="0" y1="0" x2="1" y2="1">
      <stop offset="0%" stop-color="#0f172a" />
      <stop offset="100%" stop-color="#1f2937" />
    </linearGradient>
    <linearGradient id="gold" x1="0" y1="0" x2="1" y2="1">
      <stop offset="0%" stop-color="#fbbf24" />
      <stop offset="100%" stop-color="#f59e0b" />
    </linearGradient>
  </defs>
  <rect width="512" height="512" rx="112" fill="url(#bg)" />
  <circle cx="256" cy="194" r="118" fill="#111827" stroke="#e5e7eb" stroke-width="12" />
  <rect x="183" y="158" width="88" height="26" rx="13" transform="rotate(-28 183 158)" fill="url(#gold)" />
  <rect x="218" y="127" width="98" height="26" rx="13" transform="rotate(-28 218 127)" fill="#f8fafc" />
  <rect x="243" y="149" width="54" height="24" rx="12" transform="rotate(-28 243 149)" fill="#b45309" />
  <rect x="182" y="154" width="120" height="16" rx="8" transform="rotate(18 182 154)" fill="#fde68a" opacity="0.9" />
  <rect x="132" y="322" width="248" height="28" rx="14" fill="#e5e7eb" />
  <rect x="154" y="288" width="204" height="26" rx="13" fill="url(#gold)" />
  <rect x="186" y="246" width="140" height="18" rx="9" fill="#cbd5e1" />
  <circle cx="202" cy="408" r="22" fill="#fbbf24" />
  <circle cx="310" cy="408" r="22" fill="#fbbf24" />
  <rect x="194" y="392" width="124" height="16" rx="8" fill="#f8fafc" />
</svg>
